<?xml version="1.0" encoding="UTF-8"?>
<!DOCTYPE svg PUBLIC "-//W3C//DTD SVG 1.1//EN" "http://www.w3.org/Graphics/SVG/1.1/DTD/svg11.dtd">
<svg xmlns="http://www.w3.org/2000/svg" version="1.1" width="1099px" height="427px" style="shape-rendering:geometricPrecision; text-rendering:geometricPrecision; image-rendering:optimizeQuality; fill-rule:evenodd; clip-rule:evenodd" xmlns:xlink="http://www.w3.org/1999/xlink">
<g><path style="opacity:0.936" fill="#00000e" d="M 91.5,-0.5 C 352.5,-0.5 613.5,-0.5 874.5,-0.5C 864.347,52.5999 853.68,105.6 842.5,158.5C 873.159,159.5 903.826,159.833 934.5,159.5C 944.783,106.086 955.449,52.7531 966.5,-0.5C 1009.5,-0.5 1052.5,-0.5 1095.5,-0.5C 1067.97,137.162 1040.3,274.829 1012.5,412.5C 969.839,413.5 927.172,413.833 884.5,413.5C 894.576,360.119 904.91,306.785 915.5,253.5C 885.159,253.167 854.826,253.5 824.5,254.5C 813.892,307.372 803.226,360.205 792.5,413C 749.501,413.5 706.501,413.667 663.5,413.5C 683.962,311.192 704.295,208.859 724.5,106.5C 689.26,106.171 654.094,106.504 619,107.5C 598.381,209.428 578.214,311.428 558.5,413.5C 515.495,413.833 472.495,413.5 429.5,412.5C 450.347,310.599 470.68,208.599 490.5,106.5C 393.498,106.167 296.498,106.5 199.5,107.5C 195.524,124.712 192.191,142.045 189.5,159.5C 250.5,159.5 311.5,159.5 372.5,159.5C 366.371,190.811 360.371,222.144 354.5,253.5C 292.833,253.5 231.167,253.5 169.5,253.5C 166.295,270.859 162.962,288.192 159.5,305.5C 220.833,305.5 282.167,305.5 343.5,305.5C 336.5,341.499 329.5,377.499 322.5,413.5C 218.167,413.5 113.833,413.5 9.5,413.5C 36.9618,275.524 64.2952,137.524 91.5,-0.5 Z"/></g>
</svg>
