<?xml version="1.0" encoding="UTF-8"?>
<!DOCTYPE svg PUBLIC "-//W3C//DTD SVG 1.1//EN" "http://www.w3.org/Graphics/SVG/1.1/DTD/svg11.dtd">
<svg xmlns="http://www.w3.org/2000/svg" version="1.1" width="415px" height="224px" style="shape-rendering:geometricPrecision; text-rendering:geometricPrecision; image-rendering:optimizeQuality; fill-rule:evenodd; clip-rule:evenodd" xmlns:xlink="http://www.w3.org/1999/xlink">
<g><path style="opacity:0.98" fill="#1799ce" d="M -0.5,191.5 C -0.5,187.167 -0.5,182.833 -0.5,178.5C 6.2147,164.249 16.8814,153.749 31.5,147C 52.2373,138.153 73.904,133.986 96.5,134.5C 110.547,119.285 125.381,104.952 141,91.5C 147.873,82.6001 150.373,72.6001 148.5,61.5C 132.716,64.3443 118.216,61.3443 105,52.5C 97.7995,43.5769 97.7995,34.5769 105,25.5C 123.949,6.8476 146.783,-1.31907 173.5,1C 183.566,1.57385 192.4,5.07385 200,11.5C 204.596,17.599 205.596,24.2657 203,31.5C 198.5,40 192,46.5 183.5,51C 176.067,54.3555 168.734,57.6888 161.5,61C 164.732,71.4686 171.065,79.4686 180.5,85C 185.38,87.6067 190.38,89.94 195.5,92C 215.7,98.1335 236.034,103.8 256.5,109C 261.706,110.68 266.706,112.847 271.5,115.5C 309.797,99.7169 348.463,98.5503 387.5,112C 398.258,116.459 406.092,123.959 411,134.5C 413.21,143.268 412.876,151.935 410,160.5C 399.948,177.545 385.782,190.045 367.5,198C 329.439,215.174 290.439,217.841 250.5,206C 241.945,202.774 234.445,197.941 228,191.5C 217.566,178.005 216.899,164.005 226,149.5C 233.536,138.654 243.036,129.987 254.5,123.5C 221.682,104.168 186.682,98.3344 149.5,106C 132.162,111.162 118.162,120.995 107.5,135.5C 116.364,137.956 125.03,141.123 133.5,145C 151.705,155.703 155.538,170.203 145,188.5C 126.077,208.04 102.91,218.54 75.5,220C 55.3021,222.306 35.9688,219.306 17.5,211C 9.08615,206.631 3.08615,200.131 -0.5,191.5 Z"/></g>
</svg>
